<?xml version="1.0" standalone="no"?>
<!DOCTYPE svg PUBLIC "-//W3C//DTD SVG 1.1//EN"
  "http://www.w3.org/Graphics/SVG/1.1/DTD/svg11.dtd">
<svg t="1610807927121" class="icon" viewBox="0 0 1084 1024"
     version="1.1" xmlns="http://www.w3.org/2000/svg"
     p-id="4121" width="44.000000pt" height="44.000000pt"
     xmlns:xlink="http://www.w3.org/1999/xlink">
  <defs><style type="text/css"></style></defs>
  <path d="M1019.367605 901.722353c-7.529412-36.562824-23.702588-64.692706-50.778353-82.311529-17.347765-11.776-37.647059-18.974118-71.439059-27.708236a286.780235 286.780235 0 0 1-23.130353-4.758588 248.922353 248.922353 0 0 0-19.636706-4.065882c-108.574118-20.269176-162.755765-42.706824-213.383529-106.315294l-2.981647-4.517648c2.770824 5.12-3.011765-5.029647-5.12-9.999058-16.414118-38.881882-3.794824-89.901176 50.416941-151.491765 22.226824-26.714353 38.490353-59.422118 48.670117-98.484706l4.668236-17.889882 18.070588-3.915294a30.117647 30.117647 0 0 0 23.371294-24.696471l9.426824-59.482353a30.117647 30.117647 0 0 0-24.244706-34.304l-21.473883-3.975529-2.891294-21.684706c-1.144471-8.734118-2.499765-17.257412-3.915294-25.178353-9.336471-47.977412-36.201412-98.424471-67.162353-120.922353-35.749647-25.931294-80.414118-39.815529-126.494117-39.81553-46.110118 0-90.774588 13.884235-126.494118 39.81553-30.750118 22.287059-57.765647 72.493176-67.132235 118.302118a575.849412 575.849412 0 0 0-4.306824 28.129882l-2.710588 20.961882-20.600471 4.608a30.117647 30.117647 0 0 0-23.100235 34.032941l9.396706 59.482353a30.117647 30.117647 0 0 0 22.528 24.545883l17.468235 4.306823 4.457412 17.408c10.149647 39.424 26.202353 71.258353 47.977412 95.954824 65.837176 74.842353 72.071529 137.396706 41.441882 168.297412-45.598118 54.874353-98.183529 79.119059-187.602823 99.297882-6.415059 1.445647-9.848471 2.198588-24.395295 5.360941-3.824941 0.692706-3.584 0.632471-17.317647 3.975529-9.095529 2.228706-15.36 3.614118-21.985882 4.668236-35.418353 8.312471-57.404235 15.992471-74.812235 27.828706-28.400941 19.425882-46.501647 51.410824-52.10353 94.599529-1.596235 21.082353-1.987765 41.321412-1.385411 52.856471 5.391059-12.468706 5.511529-11.806118-14.034824-13.613177 6.987294 0.662588 17.558588 1.325176 31.322353 2.017883 27.346824 1.385412 66.710588 2.740706 115.049412 4.035764 97.852235 2.590118 225.490824 4.668235 349.726117 5.571765 136.583529 1.024 259.614118 0.632471 349.394824-1.295059 49.091765-1.084235 87.672471-2.590118 114.176-4.517647 6.836706-0.512 12.769882-1.024 17.829647-1.566118a239.736471 239.736471 0 0 0-4.758588-53.519058zM60.662664 964.668235c0.180706 3.523765 0.451765 6.264471 0.813176 7.951059-1.957647-9.155765 0.662588-13.944471 2.258824-16.564706l-3.072 8.58353zM729.033487 549.647059c-40.538353 46.140235-47.284706 73.336471-40.658823 88.997647 39.725176 49.874824 82.703059 67.463529 176.158117 84.901647 6.806588 1.054118 11.926588 2.138353 23.130353 4.758588 9.728 2.258824 13.914353 3.162353 21.534118 4.48753 43.158588 10.992941 68.216471 19.877647 92.702117 36.47247 41.712941 27.105882 65.897412 69.270588 76.438589 120.32 6.746353 32.617412 7.198118 62.765176 4.577882 92.009412-3.824941 42.947765-83.968 44.664471-540.672 41.261176-124.596706-0.903529-252.626824-3.011765-350.870588-5.601882-48.790588-1.295059-88.545882-2.710588-116.434824-4.065882a862.870588 862.870588 0 0 1-33.882353-2.198589c-48.338824-4.487529-33.400471-1.897412-38.490353-25.750588-3.132235-14.546824-3.132235-44.875294-0.421647-79.570823 7.830588-61.078588 34.695529-108.574118 78.064941-138.24 25.509647-17.317647 53.278118-26.955294 98.334118-37.376 4.939294-0.783059 10.029176-1.867294 18.130824-3.855059 15.510588-3.764706 15.058824-3.674353 19.606588-4.517647 13.522824-2.921412 16.865882-3.674353 23.100235-5.059765 78.215529-17.648941 120.048941-37.074824 155.407059-80.082823l2.710588-2.891295c-1.355294 1.264941-0.120471-2.017882-0.752941-9.396705-1.505882-18.281412-14.245647-43.851294-43.158588-76.709647-25.298824-28.672-44.182588-63.879529-56.801883-105.411765a90.292706 90.292706 0 0 1-49.904941-67.162353l-9.426823-59.452235A90.352941 90.352941 0 0 1 286.304075 220.611765c0.692706-4.487529 1.475765-9.005176 2.288941-13.613177 12.257882-60.024471 46.351059-123.361882 90.895059-155.708235C425.688546 17.769412 482.761487 0 541.310193 0c58.578824 0 115.651765 17.769412 161.882353 51.320471 44.935529 32.587294 78.908235 96.436706 91.045647 158.569411l1.626353 9.577412a90.352941 90.352941 0 0 1 51.139765 96.045177l-9.426824 59.452235a90.292706 90.292706 0 0 1-51.802353 68.065882c-12.528941 40.688941-31.322353 76.197647-56.711529 106.616471z" fill="#000000"
        p-id="4122"></path>
</svg>
